<svg aria-hidden="true" class="octicon octicon-mark-github v-align-middle" data-view-component="true" viewBox="0 0 24 24"><path d="M12.5.8a11.5 11.5 0 0 0-3.6 22.4c.5 0 .8-.3.8-.6v-2.1c-3 .5-3.7-.7-4-1.4 0-.3-.6-1.3-1.1-1.6-.4-.2-1-.8 0-.8.9 0 1.5.9 1.7 1.2 1 1.8 2.7 1.3 3.4 1 .1-.8.4-1.3.7-1.6C8 17 5.2 16 5.2 11.6c0-1.2.4-2.2 1.2-3-.1-.3-.5-1.5 0-3 0 0 1-.4 3.3 1a10.7 10.7 0 0 1 5.7 0c2.2-1.4 3.2-1 3.2-1 .6 1.5.2 2.7 0 3 .8.8 1.3 1.8 1.3 3 0 4.5-2.7 5.4-5.3 5.7.4.4.8 1 .8 2.2v3.1c0 .3.2.7.8.6A11.5 11.5 0 0 0 12.5.8Z"/></svg>